<svg width="20" height="20" viewBox="0 0 20 20" fill="none" xmlns="http://www.w3.org/2000/svg">
<path d="M12.1477 13.5206C9.9627 15.055 6.92659 14.8462 4.97325 12.8928C2.78659 10.7062 2.78659 7.1606 4.97325 4.97337C7.16047 2.78671 10.7066 2.78671 12.8933 4.97337C14.7416 6.82171 15.0277 9.64115 13.7516 11.79L16.2849 14.3223C16.3881 14.4254 16.47 14.548 16.5259 14.6828C16.5818 14.8176 16.6105 14.9621 16.6105 15.1081C16.6105 15.254 16.5818 15.3986 16.5259 15.5334C16.47 15.6682 16.3881 15.7907 16.2849 15.8939L16.1883 15.99C15.9799 16.1983 15.6973 16.3154 15.4027 16.3154C15.1081 16.3154 14.8255 16.1983 14.6171 15.99L12.1477 13.5206ZM8.93325 12.765C9.94947 12.765 10.9241 12.3613 11.6426 11.6428C12.3612 10.9242 12.7649 9.9496 12.7649 8.93337C12.7649 7.91715 12.3612 6.94255 11.6426 6.22398C10.9241 5.5054 9.94947 5.10171 8.93325 5.10171C7.91703 5.10171 6.94243 5.5054 6.22386 6.22398C5.50528 6.94255 5.10159 7.91715 5.10159 8.93337C5.10159 9.9496 5.50528 10.9242 6.22386 11.6428C6.94243 12.3613 7.91703 12.765 8.93325 12.765Z" fill="white"/>
</svg>
